<?xml version="1.0" encoding="UTF-8" standalone="no"?>
<!-- Created with Inkscape (http://www.inkscape.org/) -->

<svg
   xmlns:dc="http://purl.org/dc/elements/1.1/"
   xmlns:cc="http://creativecommons.org/ns#"
   xmlns:rdf="http://www.w3.org/1999/02/22-rdf-syntax-ns#"
   xmlns:svg="http://www.w3.org/2000/svg"
   xmlns="http://www.w3.org/2000/svg"
   xmlns:sodipodi="http://sodipodi.sourceforge.net/DTD/sodipodi-0.dtd"
   xmlns:inkscape="http://www.inkscape.org/namespaces/inkscape"
   width="610"
   height="180"
   id="svg116693"
   version="1.1"
   inkscape:version="0.48.2 r9819"
   sodipodi:docname="mapbox.svgh.svg"
   inkscape:export-filename="/Users/saman/work_repos/mapbox-press-assets/logos/mapbox-logo/mapbox-1360-white.png"
   inkscape:export-xdpi="180"
   inkscape:export-ydpi="180">
  <defs
     id="defs116695" />
  <sodipodi:namedview
     id="base"
     pagecolor="#ffffff"
     bordercolor="#666666"
     borderopacity="1.0"
     inkscape:pageopacity="0.0"
     inkscape:pageshadow="2"
     inkscape:zoom="1"
     inkscape:cx="247.0584"
     inkscape:cy="88.127428"
     inkscape:document-units="px"
     inkscape:current-layer="layer1"
     showgrid="true"
     fit-margin-top="0"
     fit-margin-left="0"
     fit-margin-right="0"
     fit-margin-bottom="0"
     inkscape:window-width="1434"
     inkscape:window-height="790"
     inkscape:window-x="223"
     inkscape:window-y="0"
     inkscape:window-maximized="0"
     showguides="true"
     inkscape:guide-bbox="true"
     units="px">
    <inkscape:grid
       type="xygrid"
       id="grid31627"
       empspacing="5"
       visible="true"
       enabled="true"
       snapvisiblegridlinesonly="true" />
    <sodipodi:guide
       orientation="1,0"
       position="309.99991,190"
       id="guide3811" />
  </sodipodi:namedview>
  <metadata
     id="metadata116698">
    <rdf:RDF>
      <cc:Work
         rdf:about="">
        <dc:format>image/svg+xml</dc:format>
        <dc:type
           rdf:resource="http://purl.org/dc/dcmitype/StillImage" />
        <dc:title />
      </cc:Work>
    </rdf:RDF>
  </metadata>
  <g
     inkscape:label="white"
     inkscape:groupmode="layer"
     id="layer1"
     transform="translate(-518.57153,-405.21899)">
    <g
       id="g3024"
       transform="matrix(1.8,0,0,1.8,-589.25715,-637.19828)"
       inkscape:export-filename="/Users/saman/work_repos/mapbox-press-assets/logos/mapbox-logo/mapbox-170-white.png"
       inkscape:export-xdpi="22.5"
       inkscape:export-ydpi="22.5">
      <path
         id="path4479"
         d="m 626.57144,587.23181 0,68.00001 10,0 0,-56.00001 20,34 20,-34 0,56.00001 10,0 0,-68.00001 -8,0 c -4,-0.0128 -7.14154,1 -8.90625,4 l -13.09375,22.25 -13.09375,-22.25 c -1.76471,-3 -4.90625,-4.0128 -8.90625,-4 l -8,0 z"
         style="fill:#fff;fill-opacity:1;fill-rule:nonzero;stroke:none"
         inkscape:connector-curvature="0" />
      <path
         inkscape:connector-curvature="0"
         style="fill:#fff;fill-opacity:1;fill-rule:nonzero;stroke:none"
         d="m 801.57144,587.23181 0,69.00001 19,0 c 14,0 25,-11.00002 25,-26.00001 0,-15.00001 -11,-26.00001 -25,-26 -3.1659,0.0132 -5.7465,-0.10705 -9,-0.0937 l 0,-16.90625 -10,0 z m 10,27 9,0 c 8.4185,0 15,7.58875 15,16 0,8.41059 -5.8927,16 -15,16 l -9,0 0,-32 z"
         id="path4477" />
      <path
         inkscape:connector-curvature="0"
         style="fill:#fff;fill-opacity:1;fill-rule:nonzero;stroke:none"
         d="m 718.57144,604.23181 c -14,0 -24,11 -24,26 0,15 9.99999,26.00001 24,26.00001 l 24,0 0,-26.00001 c 0,-15 -9.99999,-26 -24,-26 z m 0,10 c 8,0 14,6.89276 14,16 l 0,16 -14,0 c -8.00001,0 -13.99998,-7.01278 -14,-16 -1e-5,-9 6,-16 14,-16 z"
         id="path4475" />
      <path
         inkscape:connector-curvature="0"
         style="fill:#fff;fill-opacity:1;fill-rule:nonzero;stroke:none"
         d="m 750.57144,604.23181 0,69.00001 10,0 0,-16.9375 c 3.25348,0.0132 5.83409,-0.0757 9,-0.0625 14,0 25,-11.00001 25,-26.00001 0,-15 -11,-26 -25,-26 l -19,0 z m 10,10 9,0 c 9.1072,0 15,7.58941 15,16 0,8.41125 -6.5815,16 -15,16 l -9,0 0,-32 z"
         id="path4473" />
      <path
         inkscape:connector-curvature="0"
         style="fill:#fff;fill-opacity:1;fill-rule:nonzero;stroke:none"
         d="m 876.57144,604.23181 c -13.8071,0 -25,11.64062 -25,26 0,14.35938 11.1929,26.00001 25,26.00001 13.8071,0 25,-11.64063 25,-26.00001 0,-14.35938 -11.1929,-26 -25,-26 z m 0,10 c 8.2843,0 15,7.16348 15,16 0,8.83652 -6.7157,16 -15,16 -8.2843,0 -15,-7.16348 -15,-16 0,-8.83652 6.7157,-16 15,-16 z"
         id="path4471" />
      <path
         inkscape:connector-curvature="0"
         style="fill:#fff;fill-opacity:1;fill-rule:nonzero;stroke:none"
         d="m 900.50894,605.21899 17.40625,24.25 -18.34375,25.75001 12.25,0 12.21875,-17.18751 12.28125,17.18751 12.25,0 -18.375,-25.75001 17.375,-24.25 -12.3125,0 -11.21875,15.65625 -11.21875,-15.65623 z"
         id="path4469" />
    </g>
  </g>
  <g
     inkscape:groupmode="layer"
     id="layer2"
     inkscape:label="blue"
     style="display:none"
     transform="translate(-140.00009,-30.00002)">
    <g
       inkscape:export-ydpi="300"
       inkscape:export-xdpi="300"
       inkscape:export-filename="/Users/saman/work_repos/graphics/mapbox/flyer/mapbox_flier_front_8.5x5.5.png"
       style="color:#000000;fill:#fff;fill-opacity:1;fill-rule:nonzero;stroke:none;stroke-width:55.73771286;marker:none;visibility:visible;display:inline;overflow:visible;enable-background:accumulate"
       transform="matrix(0.35882347,0,0,0.35882347,-7.53528,317.70579)"
       id="g2996">
      <path
         inkscape:connector-curvature="0"
         style="color:#000000;fill:#fff;fill-opacity:1;fill-rule:nonzero;stroke:none;stroke-width:55.73771286;marker:none;visibility:visible;display:inline;overflow:visible;enable-background:accumulate"
         clip-path="none"
         d="m 252.5,-403.39664 c -26.23353,0 -47.5,21.26647 -47.5,47.5 0,26.23353 21.26647,47.50004 47.5,47.50002 l 34.53125,-2e-5 c 2.11867,-1e-5 2.96875,-1.58176 2.96875,-3.75 l 0,-87.25 c 0,-3 -1,-4 -4,-4 z m 0,19 18.5,0 0,6.84375 0,45.3125 0,6.84375 -18.5,0 c -15.74011,0 -28.5,-14.75989 -28.5,-30.5 0,-15.74011 12.75989,-28.5 28.5,-28.5 z"
         id="path2998"
         sodipodi:nodetypes="csssssccsccccsss" />
      <path
         inkscape:connector-curvature="0"
         style="color:#000000;fill:#fff;fill-opacity:1;fill-rule:nonzero;stroke:none;stroke-width:55.73771286;marker:none;visibility:visible;display:inline;overflow:visible;enable-background:accumulate"
         d="m 81,-441.39664 c -3,0 -4,1 -4,4 l 0,125 c 0,3 1,4 4,4 l 11.125,0 c 2.444295,0 3.545198,-0.69394 3.875,-2.5625 l 0,-105.4375 33.25,58.5 c 1.32604,2.33303 2.75,3.48718 4.75,3.5 2,0.0128 3.42396,-1.16697 4.75,-3.5 l 33.25,-58.5 0,104 c 0,3 1,4 4,4 l 11,0 c 3,0 4,-1 4,-4 l 0,-125 c 0,-3 -1,-4 -4,-4 l -17.125,0 c -2.49457,0 -4.14512,1.06903 -5.5,3.5 l -30.375,53.5 -30.4375,-53.59375 c -1.13065,-1.99082 -1.50429,-3.40625 -4.0005,-3.40625 z"
         id="path3000"
         sodipodi:nodetypes="sssssccssscsssssscscscs" />
      <path
         inkscape:connector-curvature="0"
         style="color:#000000;fill:#fff;fill-opacity:1;fill-rule:nonzero;stroke:none;stroke-width:55.73771286;marker:none;visibility:visible;display:inline;overflow:visible;enable-background:accumulate"
         clip-path="none"
         d="m 311.96875,-403.39664 c -2.20141,-3.2e-4 -2.96875,1.3125 -2.96875,3.9375 l 0,125.0625 c 0,3 0.99597,4 4.01632,3.99999 l 11.50957,0 c 2.7489,0 3.54605,-1.18066 3.54079,-3.875 L 328,-308.45914 c 6.0766,0.0365 12.586,0.0358 18.5,0.0625 26.12125,0.11774 47.5,-20.96203 47.5,-47.5 0,-26.23353 -21.26648,-47.5265 -47.5,-47.5 -11.54051,0.0117 -23.00312,0.002 -34.53125,0 z m 16.03125,19 18.5,0 c 15.74011,0 28.5,12.75989 28.5,28.5 0,15.74011 -12.75989,30.5 -28.5,30.5 l -18.5,0 z"
         id="path3002"
         sodipodi:nodetypes="sssscscsscssscsss" />
      <path
         clip-path="none"
         id="path3004"
         d="m 553.5,-403.39664 c 26.23353,0 47.5,21.26647 47.5,47.5 0,26.23353 -21.26647,47.5 -47.5,47.5 -26.23353,0 -47.5,-21.26647 -47.5,-47.5 0,-26.23353 21.26647,-47.5 47.5,-47.5 z m 0,19 c -15.74011,0 -28.5,12.75989 -28.5,28.5 0,15.74011 12.75989,30.5 28.5,30.5 15.74011,0 28.5,-14.75989 28.5,-30.5 0,-15.74011 -12.75989,-28.5 -28.5,-28.5 z"
         style="color:#000000;fill:#fff;fill-opacity:1;fill-rule:nonzero;stroke:none;stroke-width:55.73771286;marker:none;visibility:visible;display:inline;overflow:visible;enable-background:accumulate"
         inkscape:connector-curvature="0"
         sodipodi:nodetypes="ssssssssss" />
      <path
         sodipodi:nodetypes="ssssssccsscssccccssccc"
         inkscape:connector-curvature="0"
         id="path3006"
         d="m 412,-441.40625 c -3,0 -4,1 -4,4 l 0,125.15625 c 0,2.54936 1.57368,3.84375 4.03125,3.84375 l 34.46875,0 c 26.23353,0 47.5,-12.26647 47.5,-38.5 0,-15.08273 -7.41879,-29.0953 -22.75,-34.9375 0,0 12.47895,-7.37119 12.75,-22.5 -0.23961,-25.91569 -21.41542,-37.0625 -47.5,-37.0625 z m 15,19 9.5,0 c 15.74011,0 28.5,2.75989 28.5,18.5 0,7.50938 -3.28083,12.5053 -7.65625,15.78125 -9.30886,5.53565 -19.3433,3.71875 -30.34375,3.71875 z m 0,52 19.5,0 c 15.7401,0 28.5,7.7599 28.5,23.5 0,15.74011 -12.75989,21.5 -28.5,21.5 -6.47242,9e-5 -13.00655,0 -19.5,0 z"
         style="color:#000000;fill:#fff;fill-opacity:1;fill-rule:nonzero;stroke:none;stroke-width:55.73771286;marker:none;visibility:visible;display:inline;overflow:visible;enable-background:accumulate" />
      <path
         inkscape:connector-curvature="0"
         id="path3008"
         d="m 606.8125,-403.40625 c -2.69064,0 -3.73316,1.66812 -2.25,3.625 l 29.93779,42.4716 -31.93779,45.2784 c -1.48316,1.95688 -0.44064,3.625 2.25,3.625 l 16.15625,0 c 1.67394,0 2.62104,-0.85774 3.625,-2.28125 l 21.39685,-30.3222 21.41565,30.3222 c 1.00396,1.42351 1.95106,2.28125 3.625,2.28125 l 16.15625,0 c 2.69064,0 3.73316,-1.66812 2.25,-3.625 L 657.5,-357.3125 l 29.9375,-42.46875 c 1.48316,-1.95688 0.44064,-3.625 -2.25,-3.625 l -16.15625,0 c -1.67394,0 -2.62104,0.85773 -3.625,2.28125 l -19.40511,27.50802 -19.40739,-27.50802 c -1.00396,-1.42352 -1.95106,-2.28125 -3.625,-2.28125 z"
         style="color:#000000;fill:#fff;fill-opacity:1;fill-rule:nonzero;stroke:none;stroke-width:55.73771286;marker:none;visibility:visible;display:inline;overflow:visible;enable-background:accumulate"
         sodipodi:nodetypes="scccsscccsscccsscccss" />
    </g>
    <g
       style="color:#000000;fill:#fff;fill-opacity:1;fill-rule:nonzero;stroke:none;stroke-width:40;marker:none;visibility:visible;display:inline;overflow:visible;enable-background:accumulate"
       transform="matrix(0.5,0,0,0.5,78.21428,-21.35967)"
       inkscape:export-ydpi="180"
       inkscape:export-xdpi="180"
       inkscape:export-filename="/Users/saman/work_repos/mapbox.github.com/images/about-header-2.png"
       id="g3010">
      <g
         style="color:#000000;fill:#fff;fill-opacity:1;fill-rule:nonzero;stroke:none;stroke-width:40;marker:none;visibility:visible;display:inline;overflow:visible;enable-background:accumulate"
         id="g3014"
         inkscape:export-filename="/Users/saman/Desktop/128icon.png"
         inkscape:export-xdpi="52.363594"
         inkscape:export-ydpi="52.363594">
        <path
           inkscape:connector-curvature="0"
           style="font-size:medium;font-style:normal;font-variant:normal;font-weight:normal;font-stretch:normal;text-indent:0;text-align:start;text-decoration:none;line-height:normal;letter-spacing:normal;word-spacing:normal;text-transform:none;direction:ltr;block-progression:tb;writing-mode:lr-tb;text-anchor:start;baseline-shift:baseline;color:#000000;fill:#fff;fill-opacity:1;fill-rule:nonzero;stroke:none;stroke-width:40;marker:none;visibility:visible;display:inline;overflow:visible;enable-background:accumulate;font-family:Sans;-inkscape-font-specification:Sans"
           d="m -274.96875,-330 c -1.68269,-0.01 -3.36612,0.41367 -4.84375,1.21875 l -90,49.5625 c -1.55899,0.85601 -2.8436,2.15863 -3.75,3.6875 -0.9064,1.52886 -1.43458,3.28397 -1.4375,5.0625 l 0,100.90625 c 0.006,3.55707 2.06953,7.03798 5.1875,8.75 l 90,49.5625 c 1.46708,0.80533 3.13979,1.25 4.8125,1.25 1.67271,0 3.34542,-0.44467 4.8125,-1.25 l 90,-49.5625 c 3.11797,-1.71202 5.18166,-5.19293 5.1875,-8.75 l 0,-100.90625 c -0.003,-1.77853 -0.53112,-3.53364 -1.4375,-5.0625 -0.90638,-1.52887 -2.19101,-2.83149 -3.75,-3.6875 l -90,-49.5625 c -1.45935,-0.79505 -3.11938,-1.2182 -4.78125,-1.21875 z m -0.0937,20.28125 c 0.42331,0.005 0.91191,0.16205 1.46875,0.46875 5.50328,3.03111 11.00634,6.04523 16.5,9.09375 1.52313,0.84521 2.09375,2.14464 2.09375,4.09375 l 0,8.9375 c 0,1.92467 -0.55219,3.22116 -2.03125,4.0625 l -4.9688,2.90625 0,2.15625 c 0,3 -1.04419,4 -4,4 l -1.21875,0 -8.40625,-9.9375 c -0.86767,-1.02597 -1.375,-1.62022 -1.375,-3.53125 l 0,-19.59375 c 0,-1.45763 0.66756,-2.67025 1.9375,-2.65625 z m -10.5,5.8125 c 0.96394,0.0726 1.5625,1.12409 1.5625,2.71875 l 0,5.4375 c 0,1.50871 -0.31923,2.21143 -0.875,2.9375 l -6.5625,7.8125 -1.09375,1.3125 c -1.10585,1.31948 -2.46875,0.87213 -2.46875,-1 l 0,-11.40625 c 0,-1.90573 0.52676,-3.32588 2,-4.0625 l 6.375,-3.46875 c 0.3945,-0.21585 0.74119,-0.30545 1.0625,-0.28125 z m -18.375,10.03125 c 1.06346,-0.0879 1.9375,0.63086 1.9375,2.3125 l 0,19.09375 8.90625,4.9375 c 1.5258,0.84028 2.09375,2.14464 2.09375,4.09375 l 0,3.59375 -6.3125,3.53125 -6.875,-8.125 -12.65625,6.96875 c -2.47887,1.3651 -3.03197,2.73638 -0.46875,4.125 l 10.21875,5.625 c 1.52585,0.84028 2.09375,2.14464 2.09375,4.09375 l 0,2.0625 5,2.75 0,-7.1875 c 0,-2 -0.0678,-3.27455 2.09375,-4.46875 l 10.125,-5.59375 9.46875,11.21875 -12.1875,6.75 c -8.054,9.61103 -16.07226,19.25355 -24.1875,28.8125 -0.97918,1.16309 -2.09611,1.5041 -3.125,0.9375 -5.66549,-3.11994 -10.26519,-5.64604 -15.75,-8.6875 l -10.5,12.65625 c 3.99163,2.19416 7.98697,4.38173 11.96875,6.59375 1.52276,0.84595 2.09375,2.14464 2.09375,4.09375 l 0,7.3125 20.9375,11.53125 c 3.8392,2.10753 6.59375,9.875 6.59375,9.875 l 15.65625,8.59375 c 1.5259,0.84028 2.09375,2.14464 2.09375,4.09375 l 0,3.65625 c -0.0587,1.70446 -0.32618,3.07565 -1.5625,3.75 l -6.53125,3.5625 c -0.88698,0.48405 -2.0121,0.44391 -2.875,-0.0312 L -333.375,-162.125 c -1.5258,-0.84028 -2.09375,-2.14464 -2.09375,-4.09375 l 0,-1.21875 9.03125,-10.75 -26.5,-14.59375 c -1.52585,-0.84028 -2.0625,-2.12254 -2.0625,-4.09375 l 0,-49.4375 0,-5.59375 0,-8.375 0,-2.78125 c 0,-1.94911 0.53665,-3.28472 2.0625,-4.125 l 1.90625,-1.0625 c 15.5076,-8.51543 46,-25.28125 46,-25.28125 0.36926,-0.20291 0.73926,-0.31445 1.09375,-0.34375 z m 83.4375,14.3125 c 0.60166,0 1.26735,0.29171 2.3125,0.84375 7.01351,3.87589 14.07177,7.67075 21.09375,11.53125 1.52585,0.84028 2.09375,2.14464 2.09375,4.09375 l 0,48.15625 -3.5625,-4.21875 c -1.11338,-1.31848 -2.31776,-1.33546 -3.5625,-0.65625 l -4.21875,2.3125 9.84375,11.6875 c 0.95475,1.1336 1.5,1.67589 1.5,3.6875 l 0,25.125 c 0,1.94911 -0.56768,3.25387 -2.09375,4.09375 l -26.875,14.8125 c -1.15044,0.63321 -2.38408,0.55254 -3.40625,-0.65625 -3.63659,-4.30054 -7.80999,-9.10815 -11.875,-14.03125 -3.00066,1.65946 -6.08616,3.47506 -9.09375,5 -1.53449,0.77804 -2.49546,0.82909 -4,0 -2.65615,-1.4637 -5.59102,-2.97895 -8.53125,-4.6875 -1.5061,-0.87518 -2.09375,-2.17589 -2.09375,-4.125 -0.0104,-4.78073 -0.0403,-9.47181 -0.0312,-14.34375 0.003,-1.62809 0.56176,-3.32321 1.96875,-5 l 16.03125,-19.125 -6,0 c -2,0 -4,-2 -4,-4 l 0,-5.46875 c 0,-1.94911 0.56958,-3.25042 2.09375,-4.09375 0.97913,-0.54176 4.9375,-2.78125 4.9375,-2.78125 l -0.0312,-11.125 c -0.004,-1.3981 0.47362,-3.07586 2.09375,-3.96875 l 14.90625,-8.21875 0,-16.625 c 0,-1.94911 0.57069,-3.24843 2.09375,-4.09375 1.8644,-1.03372 4.17463,-2.28203 6.28125,-3.4375 0.90775,-0.48038 1.4997,-0.6875 2.125,-0.6875 z m -24.5,64.5 11.125,6.15625 23.875,-13.15625 0,-12.25 -8.875,4.875 c -1.24261,0.68759 -2.45168,0.66938 -3.5625,-0.625 l -3.15625,-3.75 c -0.97918,-1.16309 -2.03652,-1.37894 -3.125,-0.9375 l -11.75,6.46875 -4.5313,13.21875 z"
           transform="translate(378.57144,435.21933)"
           id="path3016" />
        <g
           id="g3018"
           transform="translate(593.57144,657.80904)"
           style="color:#000000;fill:#fff;fill-opacity:1;fill-rule:nonzero;stroke:none;stroke-width:40;marker:none;visibility:visible;display:inline;overflow:visible;enable-background:accumulate" />
      </g>
    </g>
  </g>
</svg>